<svg width="327" height="97" viewBox="0 0 327 97" fill="none" xmlns="http://www.w3.org/2000/svg">
<path d="M3.2642 92V77.4545H6.33949V83.456H12.5824V77.4545H15.6506V92H12.5824V85.9915H6.33949V92H3.2642ZM52.5611 92V77.4545H62.3622V79.9901H55.6364V83.456H61.858V85.9915H55.6364V89.4645H62.3906V92H52.5611ZM151.155 92V77.4545H154.23V89.4645H160.466V92H151.155ZM195.256 92V77.4545H198.332V89.4645H204.567V92H195.256ZM252.92 84.7273C252.92 86.3134 252.619 87.6629 252.018 88.7756C251.421 89.8883 250.607 90.7382 249.575 91.3253C248.547 91.9077 247.392 92.1989 246.109 92.1989C244.816 92.1989 243.656 91.9053 242.629 91.3182C241.601 90.7311 240.789 89.8812 240.192 88.7685C239.596 87.6558 239.298 86.3087 239.298 84.7273C239.298 83.1411 239.596 81.7917 240.192 80.679C240.789 79.5663 241.601 78.7187 242.629 78.1364C243.656 77.5492 244.816 77.2557 246.109 77.2557C247.392 77.2557 248.547 77.5492 249.575 78.1364C250.607 78.7187 251.421 79.5663 252.018 80.679C252.619 81.7917 252.92 83.1411 252.92 84.7273ZM249.802 84.7273C249.802 83.6998 249.648 82.8333 249.34 82.1278C249.037 81.4223 248.609 80.8873 248.055 80.5227C247.501 80.1581 246.852 79.9759 246.109 79.9759C245.365 79.9759 244.717 80.1581 244.163 80.5227C243.609 80.8873 243.178 81.4223 242.87 82.1278C242.567 82.8333 242.415 83.6998 242.415 84.7273C242.415 85.7547 242.567 86.6212 242.87 87.3267C243.178 88.0322 243.609 88.5672 244.163 88.9318C244.717 89.2964 245.365 89.4787 246.109 89.4787C246.852 89.4787 247.501 89.2964 248.055 88.9318C248.609 88.5672 249.037 88.0322 249.34 87.3267C249.648 86.6212 249.802 85.7547 249.802 84.7273Z" fill="white"/>
<path d="M18.456 92V81.0909H20.1321V92H18.456ZM19.3082 79.2727C18.9815 79.2727 18.6998 79.1615 18.4631 78.9389C18.2311 78.7164 18.1151 78.4489 18.1151 78.1364C18.1151 77.8239 18.2311 77.5563 18.4631 77.3338C18.6998 77.1113 18.9815 77 19.3082 77C19.6349 77 19.9143 77.1113 20.1463 77.3338C20.383 77.5563 20.5014 77.8239 20.5014 78.1364C20.5014 78.4489 20.383 78.7164 20.1463 78.9389C19.9143 79.1615 19.6349 79.2727 19.3082 79.2727ZM27.6055 96.3182C26.7958 96.3182 26.0998 96.214 25.5174 96.0057C24.935 95.8021 24.4497 95.5322 24.0614 95.196C23.6779 94.8646 23.3725 94.5095 23.1452 94.1307L24.4805 93.1932C24.632 93.392 24.8237 93.6193 25.0558 93.875C25.2878 94.1354 25.605 94.3603 26.0075 94.5497C26.4147 94.7438 26.9473 94.8409 27.6055 94.8409C28.4862 94.8409 29.213 94.6278 29.7859 94.2017C30.3588 93.7756 30.6452 93.108 30.6452 92.1989V89.983H30.5032C30.3801 90.1818 30.2049 90.428 29.9776 90.7216C29.7551 91.0104 29.4331 91.2685 29.0117 91.4957C28.5951 91.7183 28.0316 91.8295 27.3214 91.8295C26.4407 91.8295 25.65 91.6212 24.9492 91.2045C24.2532 90.7879 23.7016 90.1818 23.2944 89.3864C22.8919 88.5909 22.6907 87.625 22.6907 86.4886C22.6907 85.3712 22.8872 84.3982 23.2802 83.5696C23.6732 82.7363 24.2201 82.0923 24.9208 81.6378C25.6216 81.1785 26.4312 80.9489 27.3498 80.9489C28.06 80.9489 28.6235 81.0672 29.0401 81.304C29.4615 81.536 29.7835 81.8011 30.006 82.0994C30.2333 82.393 30.4085 82.6345 30.5316 82.8239H30.7021V81.0909H32.3214V92.3125C32.3214 93.25 32.1083 94.0123 31.6822 94.5994C31.2608 95.1913 30.6926 95.6245 29.9776 95.8991C29.2674 96.1785 28.4767 96.3182 27.6055 96.3182ZM27.5487 90.3239C28.221 90.3239 28.7892 90.17 29.2532 89.8622C29.7172 89.5545 30.07 89.1117 30.3114 88.5341C30.5529 87.9564 30.6737 87.2652 30.6737 86.4602C30.6737 85.6742 30.5553 84.9806 30.3185 84.3793C30.0818 83.7779 29.7314 83.3068 29.2674 82.9659C28.8034 82.625 28.2305 82.4545 27.5487 82.4545C26.8384 82.4545 26.2466 82.6345 25.7731 82.9943C25.3043 83.3542 24.9516 83.8371 24.7148 84.4432C24.4828 85.0492 24.3668 85.7216 24.3668 86.4602C24.3668 87.2178 24.4852 87.8878 24.7219 88.4702C24.9634 89.0478 25.3185 89.5024 25.7873 89.8338C26.2608 90.1605 26.8479 90.3239 27.5487 90.3239ZM37.0657 85.4375V92H35.3896V77.4545H37.0657V82.7955H37.2077C37.4634 82.232 37.8469 81.7846 38.3583 81.4531C38.8744 81.117 39.561 80.9489 40.418 80.9489C41.1613 80.9489 41.8124 81.098 42.3711 81.3963C42.9298 81.6899 43.363 82.142 43.6708 82.7528C43.9833 83.3589 44.1396 84.1307 44.1396 85.0682V92H42.4634V85.1818C42.4634 84.3153 42.2385 83.6454 41.7887 83.1719C41.3436 82.6937 40.7257 82.4545 39.935 82.4545C39.3858 82.4545 38.8933 82.5705 38.4577 82.8026C38.0269 83.0346 37.686 83.3731 37.435 83.8182C37.1888 84.2633 37.0657 84.803 37.0657 85.4375ZM206.874 92V81.0909H208.55V92H206.874ZM207.726 79.2727C207.4 79.2727 207.118 79.1615 206.881 78.9389C206.649 78.7164 206.533 78.4489 206.533 78.1364C206.533 77.8239 206.649 77.5563 206.881 77.3338C207.118 77.1113 207.4 77 207.726 77C208.053 77 208.332 77.1113 208.564 77.3338C208.801 77.5563 208.919 77.8239 208.919 78.1364C208.919 78.4489 208.801 78.7164 208.564 78.9389C208.332 79.1615 208.053 79.2727 207.726 79.2727ZM213.296 85.4375V92H211.62V81.0909H213.239V82.7955H213.381C213.637 82.2415 214.025 81.7964 214.546 81.4602C215.067 81.1193 215.739 80.9489 216.563 80.9489C217.302 80.9489 217.948 81.1004 218.502 81.4034C219.056 81.7017 219.487 82.1562 219.795 82.767C220.103 83.3731 220.256 84.1402 220.256 85.0682V92H218.58V85.1818C218.58 84.3248 218.358 83.6572 217.913 83.179C217.468 82.696 216.857 82.4545 216.08 82.4545C215.545 82.4545 215.067 82.5705 214.646 82.8026C214.229 83.0346 213.9 83.3731 213.658 83.8182C213.417 84.2633 213.296 84.803 213.296 85.4375ZM224.882 88.0227L224.853 85.9489H225.194L229.967 81.0909H232.041L226.956 86.233H226.814L224.882 88.0227ZM223.319 92V77.4545H224.995V92H223.319ZM230.251 92L225.99 86.6023L227.183 85.4375L232.382 92H230.251ZM255.695 92V77.4545H257.371V82.8239H257.513C257.636 82.6345 257.807 82.393 258.025 82.0994C258.247 81.8011 258.564 81.536 258.976 81.304C259.393 81.0672 259.956 80.9489 260.667 80.9489C261.585 80.9489 262.395 81.1785 263.096 81.6378C263.796 82.0971 264.343 82.7481 264.736 83.5909C265.129 84.4337 265.326 85.428 265.326 86.5739C265.326 87.7292 265.129 88.7306 264.736 89.5781C264.343 90.4209 263.799 91.0743 263.103 91.5384C262.407 91.9976 261.604 92.2273 260.695 92.2273C259.994 92.2273 259.433 92.1113 259.012 91.8793C258.59 91.6425 258.266 91.375 258.039 91.0767C257.811 90.7737 257.636 90.5227 257.513 90.3239H257.314V92H255.695ZM257.343 86.5455C257.343 87.3693 257.463 88.0961 257.705 88.7259C257.946 89.3509 258.299 89.8409 258.763 90.196C259.227 90.5464 259.795 90.7216 260.468 90.7216C261.168 90.7216 261.753 90.5369 262.222 90.1676C262.695 89.7936 263.051 89.2917 263.287 88.6619C263.529 88.0275 263.65 87.322 263.65 86.5455C263.65 85.7784 263.531 85.0871 263.294 84.4716C263.062 83.8513 262.71 83.3613 262.236 83.0014C261.767 82.6368 261.178 82.4545 260.468 82.4545C259.786 82.4545 259.213 82.6274 258.749 82.973C258.285 83.3139 257.935 83.7921 257.698 84.4077C257.461 85.0185 257.343 85.7311 257.343 86.5455ZM275.617 83.5341L274.111 83.9602C274.016 83.7093 273.877 83.4654 273.692 83.2287C273.512 82.9872 273.266 82.7884 272.953 82.6321C272.641 82.4759 272.241 82.3977 271.753 82.3977C271.086 82.3977 270.529 82.5516 270.084 82.8594C269.644 83.1624 269.424 83.5483 269.424 84.017C269.424 84.4337 269.575 84.7628 269.878 85.0043C270.181 85.2457 270.655 85.447 271.299 85.608L272.918 86.0057C273.893 86.2424 274.62 86.6046 275.098 87.0923C275.577 87.5753 275.816 88.1979 275.816 88.9602C275.816 89.5852 275.636 90.1439 275.276 90.6364C274.921 91.1288 274.424 91.517 273.784 91.8011C273.145 92.0852 272.402 92.2273 271.554 92.2273C270.442 92.2273 269.521 91.9858 268.792 91.5028C268.062 91.0199 267.601 90.3144 267.407 89.3864L268.998 88.9886C269.149 89.5758 269.435 90.0161 269.857 90.3097C270.283 90.6032 270.839 90.75 271.526 90.75C272.307 90.75 272.927 90.5843 273.387 90.2528C273.851 89.9167 274.083 89.5142 274.083 89.0455C274.083 88.6667 273.95 88.3494 273.685 88.0938C273.42 87.8333 273.013 87.6392 272.463 87.5114L270.645 87.0852C269.646 86.8485 268.912 86.4815 268.444 85.9844C267.98 85.4825 267.748 84.8551 267.748 84.1023C267.748 83.4867 267.92 82.9422 268.266 82.4688C268.616 81.9953 269.092 81.6236 269.694 81.3537C270.3 81.0838 270.986 80.9489 271.753 80.9489C272.833 80.9489 273.68 81.1856 274.296 81.6591C274.916 82.1326 275.356 82.7576 275.617 83.5341ZM282.913 92.2273C281.862 92.2273 280.955 91.9953 280.192 91.5312C279.435 91.0625 278.85 90.4091 278.438 89.571C278.031 88.7282 277.827 87.7481 277.827 86.6307C277.827 85.5133 278.031 84.5284 278.438 83.6761C278.85 82.8191 279.423 82.1515 280.157 81.6733C280.896 81.1903 281.757 80.9489 282.742 80.9489C283.31 80.9489 283.871 81.0436 284.425 81.233C284.979 81.4223 285.484 81.7301 285.938 82.1562C286.393 82.5777 286.755 83.1364 287.025 83.8324C287.295 84.5284 287.43 85.3854 287.43 86.4034V87.1136H279.021V85.6648H285.725C285.725 85.0492 285.602 84.5 285.356 84.017C285.114 83.5341 284.769 83.1529 284.319 82.8736C283.874 82.5942 283.348 82.4545 282.742 82.4545C282.075 82.4545 281.497 82.6203 281.009 82.9517C280.526 83.2784 280.155 83.7045 279.894 84.2301C279.634 84.7557 279.504 85.3191 279.504 85.9205V86.8864C279.504 87.7102 279.646 88.4086 279.93 88.9815C280.219 89.5497 280.619 89.983 281.13 90.2812C281.641 90.5748 282.236 90.7216 282.913 90.7216C283.353 90.7216 283.751 90.66 284.106 90.5369C284.466 90.4091 284.776 90.2197 285.036 89.9688C285.297 89.7131 285.498 89.3958 285.64 89.017L287.259 89.4716C287.089 90.0208 286.802 90.5038 286.4 90.9205C285.997 91.3324 285.5 91.6544 284.908 91.8864C284.317 92.1136 283.651 92.2273 282.913 92.2273ZM289.979 92V81.0909H291.599V82.7386H291.712C291.911 82.1989 292.271 81.7609 292.792 81.4247C293.313 81.0885 293.9 80.9205 294.553 80.9205C294.676 80.9205 294.83 80.9228 295.015 80.9276C295.2 80.9323 295.339 80.9394 295.434 80.9489V82.6534C295.377 82.6392 295.247 82.6179 295.043 82.5895C294.844 82.5563 294.634 82.5398 294.411 82.5398C293.881 82.5398 293.407 82.651 292.991 82.8736C292.579 83.0914 292.252 83.3944 292.011 83.7827C291.774 84.1662 291.656 84.6042 291.656 85.0966V92H289.979ZM306.673 81.0909L302.639 92H300.935L296.901 81.0909H298.719L301.73 89.7841H301.844L304.855 81.0909H306.673ZM313.069 92.2273C312.018 92.2273 311.111 91.9953 310.349 91.5312C309.591 91.0625 309.006 90.4091 308.594 89.571C308.187 88.7282 307.984 87.7481 307.984 86.6307C307.984 85.5133 308.187 84.5284 308.594 83.6761C309.006 82.8191 309.579 82.1515 310.313 81.6733C311.052 81.1903 311.914 80.9489 312.898 80.9489C313.467 80.9489 314.028 81.0436 314.582 81.233C315.136 81.4223 315.64 81.7301 316.094 82.1562C316.549 82.5777 316.911 83.1364 317.181 83.8324C317.451 84.5284 317.586 85.3854 317.586 86.4034V87.1136H309.177V85.6648H315.881C315.881 85.0492 315.758 84.5 315.512 84.017C315.271 83.5341 314.925 83.1529 314.475 82.8736C314.03 82.5942 313.504 82.4545 312.898 82.4545C312.231 82.4545 311.653 82.6203 311.165 82.9517C310.683 83.2784 310.311 83.7045 310.05 84.2301C309.79 84.7557 309.66 85.3191 309.66 85.9205V86.8864C309.66 87.7102 309.802 88.4086 310.086 88.9815C310.375 89.5497 310.775 89.983 311.286 90.2812C311.798 90.5748 312.392 90.7216 313.069 90.7216C313.509 90.7216 313.907 90.66 314.262 90.5369C314.622 90.4091 314.932 90.2197 315.192 89.9688C315.453 89.7131 315.654 89.3958 315.796 89.017L317.415 89.4716C317.245 90.0208 316.959 90.5038 316.556 90.9205C316.154 91.3324 315.656 91.6544 315.065 91.8864C314.473 92.1136 313.808 92.2273 313.069 92.2273ZM320.136 92V81.0909H321.755V82.7386H321.869C322.067 82.1989 322.427 81.7609 322.948 81.4247C323.469 81.0885 324.056 80.9205 324.71 80.9205C324.833 80.9205 324.987 80.9228 325.171 80.9276C325.356 80.9323 325.496 80.9394 325.59 80.9489V82.6534C325.533 82.6392 325.403 82.6179 325.2 82.5895C325.001 82.5563 324.79 82.5398 324.567 82.5398C324.037 82.5398 323.564 82.651 323.147 82.8736C322.735 83.0914 322.408 83.3944 322.167 83.7827C321.93 84.1662 321.812 84.6042 321.812 85.0966V92H320.136Z" fill="#787878"/>
<path d="M69.935 81.0909V82.5114H64.0543V81.0909H69.935ZM65.8157 92V79.5852C65.8157 78.9602 65.9625 78.4394 66.256 78.0227C66.5496 77.6061 66.9308 77.2936 67.3995 77.0852C67.8683 76.8769 68.363 76.7727 68.8839 76.7727C69.2958 76.7727 69.632 76.8059 69.8924 76.8722C70.1528 76.9384 70.3469 77 70.4748 77.0568L69.9918 78.5057C69.9066 78.4773 69.7882 78.4418 69.6367 78.3991C69.4899 78.3565 69.2958 78.3352 69.0543 78.3352C68.5004 78.3352 68.1003 78.4749 67.854 78.7543C67.6126 79.0336 67.4918 79.4432 67.4918 79.983V92H65.8157ZM77.142 81.0909V82.5114H71.2614V81.0909H77.142ZM73.0227 92V79.5852C73.0227 78.9602 73.1695 78.4394 73.4631 78.0227C73.7566 77.6061 74.1378 77.2936 74.6065 77.0852C75.0753 76.8769 75.5701 76.7727 76.0909 76.7727C76.5028 76.7727 76.839 76.8059 77.0994 76.8722C77.3598 76.9384 77.554 77 77.6818 77.0568L77.1989 78.5057C77.1136 78.4773 76.9953 78.4418 76.8438 78.3991C76.697 78.3565 76.5028 78.3352 76.2614 78.3352C75.7074 78.3352 75.3073 78.4749 75.0611 78.7543C74.8196 79.0336 74.6989 79.4432 74.6989 79.983V92H73.0227ZM79.4911 92V81.0909H81.1673V92H79.4911ZM80.3434 79.2727C80.0167 79.2727 79.735 79.1615 79.4982 78.9389C79.2662 78.7164 79.1502 78.4489 79.1502 78.1364C79.1502 77.8239 79.2662 77.5563 79.4982 77.3338C79.735 77.1113 80.0167 77 80.3434 77C80.6701 77 80.9495 77.1113 81.1815 77.3338C81.4182 77.5563 81.5366 77.8239 81.5366 78.1364C81.5366 78.4489 81.4182 78.7164 81.1815 78.9389C80.9495 79.1615 80.6701 79.2727 80.3434 79.2727ZM88.669 92.2273C87.6463 92.2273 86.7656 91.9858 86.027 91.5028C85.2884 91.0199 84.7202 90.3546 84.3224 89.5071C83.9247 88.6596 83.7259 87.6913 83.7259 86.6023C83.7259 85.4943 83.9295 84.5166 84.3366 83.669C84.7486 82.8168 85.3215 82.1515 86.0554 81.6733C86.794 81.1903 87.6558 80.9489 88.6406 80.9489C89.4077 80.9489 90.099 81.0909 90.7145 81.375C91.33 81.6591 91.8343 82.0568 92.2273 82.5682C92.6203 83.0795 92.8641 83.6761 92.9588 84.358H91.2827C91.1548 83.8608 90.8707 83.4205 90.4304 83.0369C89.9948 82.6487 89.4077 82.4545 88.669 82.4545C88.0156 82.4545 87.4427 82.625 86.9503 82.9659C86.4626 83.3021 86.0814 83.7779 85.8068 84.3935C85.5369 85.0043 85.402 85.7216 85.402 86.5455C85.402 87.3883 85.5346 88.1222 85.7997 88.7472C86.0696 89.3722 86.4484 89.8575 86.9361 90.2031C87.4285 90.5488 88.0062 90.7216 88.669 90.7216C89.1046 90.7216 89.5 90.6458 89.8551 90.4943C90.2102 90.3428 90.5109 90.125 90.7571 89.8409C91.0033 89.5568 91.1785 89.2159 91.2827 88.8182H92.9588C92.8641 89.4621 92.6297 90.0421 92.2557 90.5582C91.8864 91.0696 91.3963 91.4768 90.7855 91.7798C90.1795 92.0781 89.474 92.2273 88.669 92.2273ZM95.4091 92V81.0909H97.0852V92H95.4091ZM96.2614 79.2727C95.9347 79.2727 95.6529 79.1615 95.4162 78.9389C95.1842 78.7164 95.0682 78.4489 95.0682 78.1364C95.0682 77.8239 95.1842 77.5563 95.4162 77.3338C95.6529 77.1113 95.9347 77 96.2614 77C96.5881 77 96.8674 77.1113 97.0994 77.3338C97.3362 77.5563 97.4545 77.8239 97.4545 78.1364C97.4545 78.4489 97.3362 78.7164 97.0994 78.9389C96.8674 79.1615 96.5881 79.2727 96.2614 79.2727ZM104.729 92.2273C103.678 92.2273 102.771 91.9953 102.009 91.5312C101.251 91.0625 100.667 90.4091 100.255 89.571C99.8474 88.7282 99.6438 87.7481 99.6438 86.6307C99.6438 85.5133 99.8474 84.5284 100.255 83.6761C100.667 82.8191 101.239 82.1515 101.973 81.6733C102.712 81.1903 103.574 80.9489 104.559 80.9489C105.127 80.9489 105.688 81.0436 106.242 81.233C106.796 81.4223 107.3 81.7301 107.755 82.1562C108.209 82.5777 108.571 83.1364 108.841 83.8324C109.111 84.5284 109.246 85.3854 109.246 86.4034V87.1136H100.837V85.6648H107.542C107.542 85.0492 107.418 84.5 107.172 84.017C106.931 83.5341 106.585 83.1529 106.135 82.8736C105.69 82.5942 105.165 82.4545 104.559 82.4545C103.891 82.4545 103.313 82.6203 102.826 82.9517C102.343 83.2784 101.971 83.7045 101.711 84.2301C101.45 84.7557 101.32 85.3191 101.32 85.9205V86.8864C101.32 87.7102 101.462 88.4086 101.746 88.9815C102.035 89.5497 102.435 89.983 102.946 90.2812C103.458 90.5748 104.052 90.7216 104.729 90.7216C105.169 90.7216 105.567 90.66 105.922 90.5369C106.282 90.4091 106.592 90.2197 106.853 89.9688C107.113 89.7131 107.314 89.3958 107.456 89.017L109.076 89.4716C108.905 90.0208 108.619 90.5038 108.216 90.9205C107.814 91.3324 107.317 91.6544 106.725 91.8864C106.133 92.1136 105.468 92.2273 104.729 92.2273ZM113.472 85.4375V92H111.796V81.0909H113.415V82.7955H113.557C113.813 82.2415 114.201 81.7964 114.722 81.4602C115.243 81.1193 115.915 80.9489 116.739 80.9489C117.478 80.9489 118.124 81.1004 118.678 81.4034C119.232 81.7017 119.663 82.1562 119.971 82.767C120.278 83.3731 120.432 84.1402 120.432 85.0682V92H118.756V85.1818C118.756 84.3248 118.533 83.6572 118.088 83.179C117.643 82.696 117.033 82.4545 116.256 82.4545C115.721 82.4545 115.243 82.5705 114.821 82.8026C114.405 83.0346 114.076 83.3731 113.834 83.8182C113.593 84.2633 113.472 84.803 113.472 85.4375ZM127.927 92.2273C126.904 92.2273 126.023 91.9858 125.285 91.5028C124.546 91.0199 123.978 90.3546 123.58 89.5071C123.183 88.6596 122.984 87.6913 122.984 86.6023C122.984 85.4943 123.187 84.5166 123.594 83.669C124.006 82.8168 124.579 82.1515 125.313 81.6733C126.052 81.1903 126.914 80.9489 127.898 80.9489C128.665 80.9489 129.357 81.0909 129.972 81.375C130.588 81.6591 131.092 82.0568 131.485 82.5682C131.878 83.0795 132.122 83.6761 132.217 84.358H130.54C130.413 83.8608 130.129 83.4205 129.688 83.0369C129.253 82.6487 128.665 82.4545 127.927 82.4545C127.273 82.4545 126.701 82.625 126.208 82.9659C125.72 83.3021 125.339 83.7779 125.065 84.3935C124.795 85.0043 124.66 85.7216 124.66 86.5455C124.66 87.3883 124.792 88.1222 125.058 88.7472C125.327 89.3722 125.706 89.8575 126.194 90.2031C126.686 90.5488 127.264 90.7216 127.927 90.7216C128.362 90.7216 128.758 90.6458 129.113 90.4943C129.468 90.3428 129.769 90.125 130.015 89.8409C130.261 89.5568 130.436 89.2159 130.54 88.8182H132.217C132.122 89.4621 131.888 90.0421 131.513 90.5582C131.144 91.0696 130.654 91.4768 130.043 91.7798C129.437 92.0781 128.732 92.2273 127.927 92.2273ZM135.746 96.0909C135.462 96.0909 135.209 96.0672 134.987 96.0199C134.764 95.9773 134.61 95.9347 134.525 95.892L134.951 94.4148C135.358 94.5189 135.718 94.5568 136.031 94.5284C136.343 94.5 136.62 94.3603 136.862 94.1094C137.108 93.8632 137.333 93.4631 137.536 92.9091L137.849 92.0568L133.815 81.0909H135.633L138.644 89.7841H138.758L141.769 81.0909H143.587L138.957 93.5909C138.748 94.1544 138.49 94.6207 138.183 94.9901C137.875 95.3641 137.517 95.6411 137.11 95.821C136.708 96.0009 136.253 96.0909 135.746 96.0909ZM162.772 92V81.0909H164.449V92H162.772ZM163.625 79.2727C163.298 79.2727 163.016 79.1615 162.779 78.9389C162.547 78.7164 162.431 78.4489 162.431 78.1364C162.431 77.8239 162.547 77.5563 162.779 77.3338C163.016 77.1113 163.298 77 163.625 77C163.951 77 164.231 77.1113 164.463 77.3338C164.699 77.5563 164.818 77.8239 164.818 78.1364C164.818 78.4489 164.699 78.7164 164.463 78.9389C164.231 79.1615 163.951 79.2727 163.625 79.2727ZM176.439 81.0909L172.405 92H170.7L166.666 81.0909H168.484L171.496 89.7841H171.609L174.621 81.0909H176.439ZM182.835 92.2273C181.783 92.2273 180.877 91.9953 180.114 91.5312C179.357 91.0625 178.772 90.4091 178.36 89.571C177.953 88.7282 177.749 87.7481 177.749 86.6307C177.749 85.5133 177.953 84.5284 178.36 83.6761C178.772 82.8191 179.345 82.1515 180.079 81.6733C180.817 81.1903 181.679 80.9489 182.664 80.9489C183.232 80.9489 183.793 81.0436 184.347 81.233C184.901 81.4223 185.406 81.7301 185.86 82.1562C186.315 82.5777 186.677 83.1364 186.947 83.8324C187.217 84.5284 187.352 85.3854 187.352 86.4034V87.1136H178.942V85.6648H185.647C185.647 85.0492 185.524 84.5 185.278 84.017C185.036 83.5341 184.691 83.1529 184.241 82.8736C183.796 82.5942 183.27 82.4545 182.664 82.4545C181.996 82.4545 181.419 82.6203 180.931 82.9517C180.448 83.2784 180.076 83.7045 179.816 84.2301C179.556 84.7557 179.425 85.3191 179.425 85.9205V86.8864C179.425 87.7102 179.567 88.4086 179.852 88.9815C180.14 89.5497 180.54 89.983 181.052 90.2812C181.563 90.5748 182.157 90.7216 182.835 90.7216C183.275 90.7216 183.673 90.66 184.028 90.5369C184.388 90.4091 184.698 90.2197 184.958 89.9688C185.219 89.7131 185.42 89.3958 185.562 89.017L187.181 89.4716C187.011 90.0208 186.724 90.5038 186.322 90.9205C185.919 91.3324 185.422 91.6544 184.83 91.8864C184.238 92.1136 183.573 92.2273 182.835 92.2273Z" fill="#747474"/>
<path d="M185.486 57.129C180.88 59.1721 175.728 59.6383 170.83 58.4552C165.932 57.272 161.562 54.5058 158.396 50.5855C155.23 46.6651 153.447 41.8098 153.322 36.7725C153.197 31.7351 154.738 26.7974 157.705 22.725C160.673 18.6526 164.901 15.6731 169.734 14.2487C174.568 12.8243 179.736 13.0346 184.438 14.8469C189.139 16.6592 193.112 19.9722 195.738 24.2722C198.365 28.5722 199.5 33.6188 198.966 38.6294L176.205 36.2051L185.486 57.129Z" fill="white"/>
<circle cx="176.118" cy="36.3034" r="18.1374" fill="white"/>
<ellipse cx="175.504" cy="37" rx="16.5" ry="17" fill="#2F2F2F"/>
<ellipse cx="176.504" cy="36.5" rx="14.5" ry="14.5" transform="rotate(-180 176.504 36.5)" fill="url(#paint0_linear_224_2)"/>
<circle cx="177" cy="37" r="3" fill="black" stroke="#353535" stroke-width="6"/>
<path d="M197.008 36.5C197.008 47.8218 187.83 57 176.508 57C165.186 57 156.008 47.8218 156.008 36.5C156.008 25.1782 165.186 16 176.508 16C187.83 16 197.008 25.1782 197.008 36.5ZM162.158 36.5C162.158 44.4253 168.583 50.85 176.508 50.85C184.433 50.85 190.858 44.4253 190.858 36.5C190.858 28.5747 184.433 22.15 176.508 22.15C168.583 22.15 162.158 28.5747 162.158 36.5Z" fill="black"/>
<circle opacity="0.31" cx="182.504" cy="30.5" r="3.5" fill="url(#paint1_linear_224_2)"/>
<circle cx="177.004" cy="37" r="1" fill="black"/>
<path d="M5.79545 58V14.3636H9.77983V34.3707H34.5384V14.3636H38.5227V58H34.5384V37.9503H9.77983V58H5.79545ZM50.0923 58V14.3636H75.4048V17.9432H54.0767V34.3707H74.0625V37.9503H54.0767V54.4205H75.831V58H50.0923ZM85.7173 58V14.3636H89.7017V54.4205H110.497V58H85.7173ZM119.467 58V14.3636H123.452V54.4205H144.247V58H119.467Z" fill="white"/>
<defs>
<linearGradient id="paint0_linear_224_2" x1="170.212" y1="51" x2="191.004" y2="26.9153" gradientUnits="userSpaceOnUse">
<stop stop-color="#747474"/>
<stop offset="1"/>
</linearGradient>
<linearGradient id="paint1_linear_224_2" x1="188.422" y1="25.7909" x2="182.504" y2="34" gradientUnits="userSpaceOnUse">
<stop stop-color="#D9D9D9"/>
<stop offset="1" stop-color="#737373"/>
</linearGradient>
</defs>
</svg>
